HIERARCHY
ROOT Hips
{
 OFFSET 0.000000 0.000000 0.000000
 CHANNELS 6 Xposition Yposition Zposition Yrotation Xrotation Zrotation
 JOINT Chest
 {
  OFFSET 0.000000 9.585900 0.002600
  CHANNELS 3 Yrotation Xrotation Zrotation
  JOINT Chest2
  {
   OFFSET 0.000000 9.601200 -0.005300
   CHANNELS 3 Yrotation Xrotation Zrotation
   JOINT Chest3
   {
    OFFSET 0.000000 9.561800 0.000000
    CHANNELS 3 Yrotation Xrotation Zrotation
    JOINT Chest4
    {
     OFFSET 0.000000 9.552100 0.000000
     CHANNELS 3 Yrotation Xrotation Zrotation
     JOINT Neck
     {
      OFFSET 0.000000 14.453000 0.000000
      CHANNELS 3 Yrotation Xrotation Zrotation
      JOINT Head
      {
       OFFSET 0.000000 8.936500 -0.011300
       CHANNELS 3 Yrotation Xrotation Zrotation
       End Site
       {
        OFFSET 0.000000 17.073600 -0.006000
       }
      }
     }
     JOINT RightCollar
     {
      OFFSET -2.921100 9.558500 0.000000
      CHANNELS 3 Yrotation Xrotation Zrotation
      JOINT RightShoulder
      {
       OFFSET -13.519700 0.000000 0.000000
       CHANNELS 3 Yrotation Xrotation Zrotation
       JOINT RightElbow
       {
        OFFSET 0.000000 -29.696600 0.000000
        CHANNELS 3 Yrotation Xrotation Zrotation
        JOINT RightWrist
        {
         OFFSET 0.000000 -24.004700 0.000000
         CHANNELS 3 Yrotation Xrotation Zrotation
         End Site
         {
          OFFSET 0.000000 -17.728500 0.000000
         }
        }
       }
      }
     }
     JOINT LeftCollar
     {
      OFFSET 2.921100 9.558500 0.000000
      CHANNELS 3 Yrotation Xrotation Zrotation
      JOINT LeftShoulder
      {
       OFFSET 13.519700 0.000000 0.000000
       CHANNELS 3 Yrotation Xrotation Zrotation
       JOINT LeftElbow
       {
        OFFSET 0.000000 -29.696600 0.000000
        CHANNELS 3 Yrotation Xrotation Zrotation
        JOINT LeftWrist
        {
         OFFSET 0.000000 -24.004700 0.000000
         CHANNELS 3 Yrotation Xrotation Zrotation
         End Site
         {
          OFFSET 0.000000 -17.728500 0.000000
         }
        }
       }
      }
     }
    }
   }
  }
 }
 JOINT RightHip
 {
  OFFSET -7.771700 -0.012900 -0.001300
  CHANNELS 3 Yrotation Xrotation Zrotation
  JOINT RightKnee
  {
   OFFSET 0.000000 -40.869800 0.001200
   CHANNELS 3 Yrotation Xrotation Zrotation
   JOINT RightAnkle
   {
    OFFSET 0.000000 -39.717900 0.002100
    CHANNELS 3 Yrotation Xrotation Zrotation
    JOINT RightToe
    {
     OFFSET 0.000000 -4.965400 11.033500
     CHANNELS 3 Yrotation Xrotation Zrotation
     End Site
     {
      OFFSET 0.000000 -1.423100 5.872300
     }
    }
   }
  }
 }
 JOINT LeftHip
 {
  OFFSET 7.771700 -0.012900 -0.001300
  CHANNELS 3 Yrotation Xrotation Zrotation
  JOINT LeftKnee
  {
   OFFSET 0.000000 -40.869800 0.001200
   CHANNELS 3 Yrotation Xrotation Zrotation
   JOINT LeftAnkle
   {
    OFFSET 0.000000 -39.717900 0.002100
    CHANNELS 3 Yrotation Xrotation Zrotation
    JOINT LeftToe
    {
     OFFSET 0.000000 -4.965400 11.033500
     CHANNELS 3 Yrotation Xrotation Zrotation
     End Site
     {
      OFFSET 0.000000 -1.423100 5.872300
     }
    }
   }
  }
 }
}
MOTION
Frames: 8
Frame Time: 0.008333
-121.765882 46.926919 -40.181277 168.687111 -30.252180 -3.925166 0.963207 16.404450 1.185333 0.089739 1.657553 0.105520 0.258701 2.777387 0.196023 0.799007 14.514833 1.020752 2.318634 20.220245 -1.472355 4.671948 1.856381 -3.363232 -0.862937 1.120328 -0.800104 7.321032 -8.201047 -17.658277 -32.688798 -53.985786 83.923481 -0.834794 3.996022 -14.377911 1.146387 0.389853 2.746452 -5.466497 -2.347379 12.020525 47.058494 -70.255989 -84.922901 -0.017829 6.872771 6.620411 -9.708401 -54.682480 6.241594 -161.906366 78.987323 -151.016910 -9.838198 -16.043634 -8.522438 -0.062545 -0.174481 0.242523 -2.931621 -58.889662 20.476319 -121.257182 81.777532 -124.516642 8.947229 -7.675251 4.657363 0.025111 0.048657 -0.294328
-121.764105 46.936799 -40.210902 168.651860 -30.254965 -3.943075 0.936771 16.399289 1.191940 0.064821 1.657328 0.101264 0.167699 2.774422 0.180123 0.839329 14.527831 1.023300 2.341596 20.208976 -1.496871 4.764787 1.859561 -3.399632 -0.846589 1.142403 -0.817843 7.259620 -8.195484 -17.687306 -32.761264 -53.977086 83.991823 -0.863491 3.907319 -14.369156 1.119793 0.394367 2.734601 -5.561927 -2.440481 11.997172 46.971000 -70.271351 -84.776384 -0.039711 6.875046 6.656038 -9.599089 -54.701473 6.269498 -161.836818 79.013069 -150.938003 -9.879622 -15.923797 -8.558475 -0.030504 -0.172791 0.260533 -3.135332 -58.859720 20.531976 -121.796384 81.796337 -124.999664 9.064572 -7.717305 4.528215 0.005411 0.030370 -0.265861
-121.766331 46.944151 -40.234507 168.615894 -30.258166 -3.962811 0.957653 16.398074 1.222169 0.003517 1.654325 0.092635 0.136245 2.776173 0.177235 0.825012 14.536717 1.020990 2.355336 20.198252 -1.524200 4.756493 1.819563 -3.469153 -0.833802 1.161687 -0.837474 7.190350 -8.186080 -17.710242 -32.821158 -53.966520 84.050826 -0.898163 3.826878 -14.370462 1.087345 0.402223 2.722332 -5.661944 -2.539332 11.974771 46.877350 -70.290255 -84.621022 -0.057392 6.886224 6.697479 -9.478853 -54.716900 6.292061 -161.670240 79.036892 -150.754660 -9.916835 -15.801789 -8.603651 -0.006045 -0.168873 0.279945 -3.332967 -58.831414 20.584131 -122.334404 81.823056 -125.482477 9.161423 -7.762543 4.438876 -0.006659 0.004857 -0.202800
-121.771948 46.948555 -40.252575 168.580762 -30.260346 -3.985864 0.917207 16.392286 1.226048 0.008200 1.659056 0.101624 0.129328 2.779074 0.177854 0.788212 14.544619 1.019984 2.361235 20.187556 -1.554451 4.761223 1.794863 -3.531762 -0.772583 1.166398 -0.864360 7.067589 -8.160451 -17.721984 -32.871231 -53.963235 84.099012 -0.940299 3.753736 -14.382092 1.056384 0.411419 2.709704 -5.765519 -2.642021 11.950765 46.773963 -70.315156 -84.457417 -0.068251 6.906848 6.744992 -9.351565 -54.729349 6.304238 -161.440921 79.055321 -150.504078 -9.928956 -15.691915 -8.643733 -0.019584 -0.192377 0.343205 -3.524397 -58.807886 20.630695 -122.892432 81.861317 -125.986486 9.262329 -7.811286 4.414868 -0.000777 0.007643 -0.264480
-121.782531 46.949910 -40.266496 168.548976 -30.262581 -3.999974 0.882346 16.388539 1.232886 0.008058 1.665719 0.104494 0.122448 2.781995 0.178980 0.751857 14.552496 1.021742 2.360327 20.175382 -1.586921 4.769638 1.773921 -3.591104 -0.717253 1.167485 -0.896491 6.950775 -8.128758 -17.729927 -32.917758 -53.968227 84.140278 -0.983615 3.681910 -14.406489 1.031586 0.423597 2.697210 -5.872742 -2.749702 11.925693 46.667686 -70.341586 -84.291553 -0.080945 6.936916 6.795205 -9.210480 -54.740704 6.285620 -161.206681 79.067481 -150.248389 -9.926984 -15.601219 -8.665635 -0.001675 -0.169352 0.328473 -3.687013 -58.792286 20.650802 -123.484526 81.905140 -126.520604 9.355567 -7.842708 4.328537 0.002472 -0.000514 -0.259085
-121.798086 46.948361 -40.276920 168.527356 -30.263601 -4.004978 0.835556 16.390519 1.227101 0.028406 1.667357 0.107330 0.101469 2.786709 0.181600 0.718908 14.560289 1.027587 2.395491 20.162412 -1.625261 4.726116 1.747912 -3.631289 -0.782174 1.195283 -0.912831 6.957426 -8.121355 -17.760674 -32.962991 -53.979483 84.177717 -1.023892 3.611650 -14.439995 1.008156 0.439236 2.683353 -5.978891 -2.858131 11.902058 46.568484 -70.368688 -84.132736 -0.102628 6.972371 6.845431 -9.065691 -54.753078 6.236791 -160.983017 79.073485 -150.009256 -9.912416 -15.524898 -8.666942 0.001236 -0.144216 0.296624 -3.818037 -58.784540 20.637381 -124.108101 81.954746 -127.084541 9.425859 -7.864997 4.221405 0.009404 -0.011896 -0.223344
-121.816166 46.944932 -40.284600 168.507340 -30.268319 -4.007155 0.756502 16.401515 1.211791 0.110143 1.662710 0.107557 0.055341 2.795245 0.188392 0.689563 14.568818 1.036531 2.420432 20.146482 -1.666713 4.674359 1.722545 -3.670071 -0.800597 1.207593 -0.931461 6.918303 -8.097374 -17.786239 -33.011635 -53.994331 84.217950 -1.063386 3.542218 -14.473741 0.984534 0.453679 2.669357 -6.081069 -2.959234 11.876054 46.477206 -70.402019 -83.980678 -0.128823 7.005723 6.894896 -8.924131 -54.761164 6.177407 -160.735688 79.073263 -149.751502 -9.888030 -15.455845 -8.652431 -0.007938 -0.131804 0.273820 -3.925768 -58.777547 20.610096 -124.743716 82.006114 -127.661191 9.485350 -7.886891 4.124817 -0.003322 -0.021299 -0.188648
-121.834608 46.940137 -40.289063 168.474340 -30.273955 -4.009537 0.776369 16.406379 1.227467 0.065148 1.668264 0.109029 0.085649 2.793898 0.190159 0.638512 14.583966 1.057397 2.337986 20.131778 -1.694503 4.707640 1.698963 -3.759977 -0.797822 1.209729 -0.955207 6.860239 -8.060307 -17.805906 -33.065520 -54.009405 84.264238 -1.102735 3.461985 -14.499712 1.008765 0.450327 2.637543 -6.226452 -3.033559 11.858685 46.399058 -70.446537 -83.840107 -0.154368 7.034898 6.945850 -8.786233 -54.769633 6.127884 -160.454510 79.068063 -149.459398 -9.865271 -15.389684 -8.630558 -0.024218 -0.122089 0.247369 -4.011896 -58.772763 20.589918 -125.342880 82.052670 -128.200179 9.503126 -7.916130 4.093688 0.007907 -0.019052 -0.206053
